<?xml version="1.0" encoding="utf-8"?>
<!-- Generator: Adobe Illustrator 22.0.1, SVG Export Plug-In . SVG Version: 6.00 Build 0)  -->
<svg version="1.1" id="Слой_1" xmlns="http://www.w3.org/2000/svg" xmlns:xlink="http://www.w3.org/1999/xlink" x="0px" y="0px"
	 viewBox="0 0 238 160.7" style="enable-background:new 0 0 238 160.7;" xml:space="preserve">
<style type="text/css">
	.st0{fill-rule:evenodd;clip-rule:evenodd;fill:#E65E09;}
	.st1{fill-rule:evenodd;clip-rule:evenodd;}
	.st2{fill-rule:evenodd;clip-rule:evenodd;fill:#F2A755;}
</style>
<g id="Shape_3_copy_4_12_">
	<g>
		<path class="st0" d="M107.2,20.7c-19.5-2-37.1,20.9-37.1,20.9c10.9-7.4,19.7-10.2,46.3-3.7c16.5,4,31.1,12,54.6-13.9
			C151.6,35.8,126.8,22.7,107.2,20.7z"/>
	</g>
</g>
<g id="Shape_3_copy_6_6_">
	<g>
		<path class="st1" d="M103.2,39.2c-25.5-2.6-48.5,27.3-48.5,27.3c14.2-9.6,25.7-13.3,60.4-4.8c21.6,5.3,40.6,15.7,71.2-18.2
			C161.1,58.9,128.7,41.8,103.2,39.2z"/>
	</g>
</g>
<g id="Shape_3_copy_5_12_">
	<g>
		<path class="st2" d="M111.6,7.5C98.4,6.1,86.5,21.6,86.5,21.6c7.4-5,13.3-6.9,31.2-2.5c11.2,2.7,21,8.1,36.8-9.4
			C141.5,17.6,124.7,8.8,111.6,7.5z"/>
	</g>
</g>
<g>
	<g>
		<path d="M43.1,125.4h-8.6v-19.8L25.3,117L16,105.7v19.8H7.5V90.1h5.1l12.7,15.7L38,90.1h5.1V125.4z"/>
		<path d="M87.1,103.7h14.2v8.1H87.1v5.5h15.6v8.1H78.5V90.1h24.2v8.1H87.1V103.7z"/>
		<path d="M157.8,125.4l-7.3-11.4c-0.6-0.9-1.1-1.5-1.6-1.8c-0.5-0.3-1.2-0.5-2.1-0.5h-1.9v13.7h-8.6V90.1h8.6v13.3h1.9
			c0.9,0,1.6-0.2,2.1-0.5c0.5-0.3,1-0.9,1.6-1.8l7.1-11h9.6l-8.6,13.6c-1.2,1.6-2.4,2.8-3.7,3.7c1.2,0.7,2.5,2.1,3.7,4l8.9,14H157.8
			z"/>
		<path d="M208.2,120.5l-1.8,4.9h-9.5l14.4-35.3h5.1l14.2,35.3h-9.5l-1.8-4.9H208.2z M213.7,105.5l-2.6,6.9h5.1L213.7,105.5z"/>
	</g>
	<g>
		<path d="M7,143.4h6.8c3,0,4.5,1.2,4.5,3.5c0,1.4-0.6,2.3-1.8,2.7c1.6,0.4,2.4,1.3,2.4,2.9c0,1.4-0.4,2.4-1.2,3
			c-0.8,0.6-2.1,0.9-3.9,0.9H7V143.4z M10.3,146.3v2.3h3.3c0.9,0,1.4-0.4,1.4-1.2c0-0.8-0.5-1.1-1.4-1.1H10.3z M10.3,153.7h3.6
			c1.1,0,1.7-0.5,1.7-1.4c0-0.9-0.5-1.3-1.6-1.3h-3.7V153.7z"/>
		<path d="M40,156.5h-2.2l-0.2-1.8c-1.1,1.3-2.5,2-4.3,2c-1.8,0-3.3-0.6-4.5-1.9s-1.8-2.9-1.8-4.7c0-1.9,0.6-3.5,1.8-4.8
			c1.2-1.3,2.7-1.9,4.5-1.9c1.8,0,3.3,0.7,4.3,2l0.2-1.8H40V156.5z M33.6,153.4c0.9,0,1.7-0.3,2.4-1c0.7-0.6,1-1.5,1-2.5
			c0-1-0.3-1.9-1-2.5c-0.7-0.7-1.5-1-2.4-1s-1.7,0.3-2.4,1c-0.7,0.7-1,1.5-1,2.5c0,1,0.3,1.9,1,2.5
			C31.8,153.1,32.6,153.4,33.6,153.4z"/>
		<path d="M69,156.5H49.6v-13h3.3v9.8h4.8v-9.8H61v9.8h4.8v-9.8H69V156.5z"/>
		<path d="M91,156.5h-2.2l-0.2-1.8c-1.1,1.3-2.5,2-4.3,2c-1.8,0-3.3-0.6-4.5-1.9s-1.8-2.9-1.8-4.7c0-1.9,0.6-3.5,1.8-4.8
			c1.2-1.3,2.7-1.9,4.5-1.9c1.8,0,3.3,0.7,4.3,2l0.2-1.8H91V156.5z M84.6,153.4c0.9,0,1.7-0.3,2.4-1c0.7-0.6,1-1.5,1-2.5
			c0-1-0.3-1.9-1-2.5c-0.7-0.7-1.5-1-2.4-1c-0.9,0-1.7,0.3-2.4,1c-0.7,0.7-1,1.5-1,2.5c0,1,0.3,1.9,1,2.5
			C82.9,153.1,83.6,153.4,84.6,153.4z"/>
		<path d="M128.5,156.5h-3.3v-7.7l-3.6,4.2l-3.6-4.2v7.7h-3.3v-13h2.1l4.8,5.6l4.8-5.6h2.1V156.5z"/>
		<path d="M144,143.3c2.8,0,4.7,1.2,5.7,3.5c0.3,0.6,0.4,1.3,0.4,2.1c0,0.8,0,1.5-0.2,2h-9.1c0,0.9,0.3,1.5,0.9,2
			c0.6,0.5,1.4,0.7,2.3,0.7c1.4,0,2.8-0.3,3.9-0.9l1.7,1.9c-1.8,1.4-3.7,2-5.7,2c-2,0-3.6-0.6-4.8-1.9c-1.2-1.3-1.8-2.9-1.8-4.8
			c0-1.9,0.6-3.5,1.8-4.8C140.4,143.9,142,143.3,144,143.3z M144,146.3c-0.8,0-1.6,0.3-2.1,0.8c-0.6,0.5-0.9,1.1-0.9,1.7h6
			c0-0.4-0.1-0.7-0.3-1C146.1,146.8,145.2,146.3,144,146.3z"/>
		<path d="M168.2,138.2h3.3c0,1.3-0.4,2.3-1.1,2.9c-0.7,0.6-2,1-3.8,1h-0.8c-1.2,0-2.2,0.3-2.9,0.8c-0.7,0.6-1.1,1.4-1.1,2.4v0.6
			c0.4-0.6,0.9-1.1,1.6-1.5c0.7-0.4,1.5-0.6,2.4-0.6c1.8,0,3.3,0.6,4.4,1.7c1.1,1.1,1.7,2.6,1.7,4.4c0,1.9-0.6,3.5-1.8,4.8
			c-1.2,1.3-2.8,1.9-4.8,1.9c-1.9,0-3.5-0.6-4.8-1.9c-1.3-1.3-1.9-3-1.9-5.1v-3.1c0-2.3,0.7-4.1,2-5.3c1.3-1.3,3.2-1.9,5.6-1.9
			c0.8,0,1.4-0.1,1.7-0.2C168,138.9,168.2,138.7,168.2,138.2z M165.1,146.9c-0.9,0-1.7,0.3-2.4,0.9c-0.7,0.6-1,1.4-1,2.3
			c0,1,0.3,1.7,1,2.4c0.7,0.6,1.4,0.9,2.4,0.9c0.9,0,1.7-0.3,2.4-0.9c0.7-0.6,1-1.4,1-2.4c0-0.9-0.3-1.7-1-2.3
			C166.8,147.2,166,146.9,165.1,146.9z"/>
		<path d="M186.5,143.3c2.8,0,4.7,1.2,5.7,3.5c0.3,0.6,0.4,1.3,0.4,2.1c0,0.8,0,1.5-0.2,2h-9.1c0,0.9,0.3,1.5,0.9,2
			c0.6,0.5,1.4,0.7,2.3,0.7c1.4,0,2.8-0.3,3.9-0.9l1.7,1.9c-1.8,1.4-3.7,2-5.7,2c-2,0-3.6-0.6-4.8-1.9c-1.2-1.3-1.8-2.9-1.8-4.8
			c0-1.9,0.6-3.5,1.8-4.8C182.9,143.9,184.5,143.3,186.5,143.3z M186.5,146.3c-0.8,0-1.6,0.3-2.1,0.8c-0.6,0.5-0.9,1.1-0.9,1.7h6
			c0-0.4-0.1-0.7-0.3-1C188.6,146.8,187.7,146.3,186.5,146.3z"/>
		<path d="M206.9,148.3l-3.6,8.1h-3.5l6-13h2.1l6,13h-3.5L206.9,148.3z"/>
		<path d="M225.6,147.2h3c1.1,0,2,0.1,2.8,0.4c0.8,0.3,1.3,0.7,1.7,1.2c0.4,0.5,0.6,1,0.8,1.5c0.2,0.5,0.2,1,0.2,1.6
			c0,0.6-0.1,1.1-0.2,1.6c-0.2,0.5-0.4,1-0.8,1.5c-0.4,0.5-0.9,0.9-1.7,1.2s-1.7,0.4-2.8,0.4h-6.3v-13h3.3V147.2z M225.6,153.4h3.4
			c1.2,0,1.8-0.5,1.8-1.5c0-1-0.6-1.5-1.8-1.5h-3.4V153.4z"/>
	</g>
</g>
<g>
</g>
<g>
</g>
<g>
</g>
<g>
</g>
<g>
</g>
<g>
</g>
<g>
</g>
<g>
</g>
<g>
</g>
<g>
</g>
<g>
</g>
</svg>
