<svg width="238" height="160.7" xmlns="http://www.w3.org/2000/svg">
 <style type="text/css">.st0{fill-rule:evenodd;clip-rule:evenodd;fill:#E65E09;}
	.st1{fill-rule:evenodd;clip-rule:evenodd;}
	.st2{fill-rule:evenodd;clip-rule:evenodd;fill:#F2A755;}</style>

 <g>
  <title>background</title>
  <rect fill="none" id="canvas_background" height="402" width="582" y="-1" x="-1"/>
 </g>
 <g>
  <title>Layer 1</title>
  <g id="Shape_3_copy_4_12_">
   <g id="svg_1">
    <path id="svg_2" d="m107.2,20.7c-19.5,-2 -37.1,20.9 -37.1,20.9c10.9,-7.4 19.7,-10.2 46.3,-3.7c16.5,4 31.1,12 54.6,-13.9c-19.4,11.8 -44.2,-1.3 -63.8,-3.3z" class="st0"/>
   </g>
  </g>
  <g id="Shape_3_copy_6_6_">
   <g id="svg_3">
    <path fill="#ffffff" id="svg_4" d="m103.2,39.2c-25.5,-2.6 -48.5,27.3 -48.5,27.3c14.2,-9.6 25.7,-13.3 60.4,-4.8c21.6,5.3 40.6,15.7 71.2,-18.2c-25.2,15.4 -57.6,-1.7 -83.1,-4.3z" class="st1"/>
   </g>
  </g>
  <g id="Shape_3_copy_5_12_">
   <g id="svg_5">
    <path id="svg_6" d="m111.6,7.5c-13.2,-1.4 -25.1,14.1 -25.1,14.1c7.4,-5 13.3,-6.9 31.2,-2.5c11.2,2.7 21,8.1 36.8,-9.4c-13,7.9 -29.8,-0.9 -42.9,-2.2z" class="st2"/>
   </g>
  </g>
  <g id="svg_8">
   <path fill="#ffffff" id="svg_9" d="m43.1,125.4l-8.6,0l0,-19.8l-9.2,11.4l-9.3,-11.3l0,19.8l-8.5,0l0,-35.4l5.1,0l12.7,15.7l12.7,-15.7l5.1,0l0,35.3z"/>
   <path fill="#ffffff" id="svg_10" d="m87.1,103.7l14.2,0l0,8.1l-14.2,0l0,5.5l15.6,0l0,8.1l-24.2,0l0,-35.3l24.2,0l0,8.1l-15.6,0l0,5.5z"/>
   <path fill="#ffffff" id="svg_11" d="m157.8,125.4l-7.3,-11.4c-0.6,-0.9 -1.1,-1.5 -1.6,-1.8c-0.5,-0.3 -1.2,-0.5 -2.1,-0.5l-1.9,0l0,13.7l-8.6,0l0,-35.3l8.6,0l0,13.3l1.9,0c0.9,0 1.6,-0.2 2.1,-0.5c0.5,-0.3 1,-0.9 1.6,-1.8l7.1,-11l9.6,0l-8.6,13.6c-1.2,1.6 -2.4,2.8 -3.7,3.7c1.2,0.7 2.5,2.1 3.7,4l8.9,14l-9.7,0z"/>
   <path fill="#ffffff" id="svg_12" d="m208.2,120.5l-1.8,4.9l-9.5,0l14.4,-35.3l5.1,0l14.2,35.3l-9.5,0l-1.8,-4.9l-11.1,0zm5.5,-15l-2.6,6.9l5.1,0l-2.5,-6.9z"/>
  </g>
  <g id="svg_13">
   <path fill="#ffffff" id="svg_14" d="m7,143.4l6.8,0c3,0 4.5,1.2 4.5,3.5c0,1.4 -0.6,2.3 -1.8,2.7c1.6,0.4 2.4,1.3 2.4,2.9c0,1.4 -0.4,2.4 -1.2,3c-0.8,0.6 -2.1,0.9 -3.9,0.9l-6.8,0l0,-13zm3.3,2.9l0,2.3l3.3,0c0.9,0 1.4,-0.4 1.4,-1.2c0,-0.8 -0.5,-1.1 -1.4,-1.1l-3.3,0zm0,7.4l3.6,0c1.1,0 1.7,-0.5 1.7,-1.4c0,-0.9 -0.5,-1.3 -1.6,-1.3l-3.7,0l0,2.7z"/>
   <path fill="#ffffff" id="svg_15" d="m40,156.5l-2.2,0l-0.2,-1.8c-1.1,1.3 -2.5,2 -4.3,2c-1.8,0 -3.3,-0.6 -4.5,-1.9s-1.8,-2.9 -1.8,-4.7c0,-1.9 0.6,-3.5 1.8,-4.8c1.2,-1.3 2.7,-1.9 4.5,-1.9c1.8,0 3.3,0.7 4.3,2l0.2,-1.8l2.2,0l0,12.9zm-6.4,-3.1c0.9,0 1.7,-0.3 2.4,-1c0.7,-0.6 1,-1.5 1,-2.5c0,-1 -0.3,-1.9 -1,-2.5c-0.7,-0.7 -1.5,-1 -2.4,-1s-1.7,0.3 -2.4,1c-0.7,0.7 -1,1.5 -1,2.5c0,1 0.3,1.9 1,2.5c0.6,0.7 1.4,1 2.4,1z"/>
   <path fill="#ffffff" id="svg_16" d="m69,156.5l-19.4,0l0,-13l3.3,0l0,9.8l4.8,0l0,-9.8l3.3,0l0,9.8l4.8,0l0,-9.8l3.2,0l0,13z"/>
   <path fill="#ffffff" id="svg_17" d="m91,156.5l-2.2,0l-0.2,-1.8c-1.1,1.3 -2.5,2 -4.3,2c-1.8,0 -3.3,-0.6 -4.5,-1.9s-1.8,-2.9 -1.8,-4.7c0,-1.9 0.6,-3.5 1.8,-4.8c1.2,-1.3 2.7,-1.9 4.5,-1.9c1.8,0 3.3,0.7 4.3,2l0.2,-1.8l2.2,0l0,12.9zm-6.4,-3.1c0.9,0 1.7,-0.3 2.4,-1c0.7,-0.6 1,-1.5 1,-2.5c0,-1 -0.3,-1.9 -1,-2.5c-0.7,-0.7 -1.5,-1 -2.4,-1c-0.9,0 -1.7,0.3 -2.4,1c-0.7,0.7 -1,1.5 -1,2.5c0,1 0.3,1.9 1,2.5c0.7,0.7 1.4,1 2.4,1z"/>
   <path fill="#ffffff" id="svg_18" d="m128.5,156.5l-3.3,0l0,-7.7l-3.6,4.2l-3.6,-4.2l0,7.7l-3.3,0l0,-13l2.1,0l4.8,5.6l4.8,-5.6l2.1,0l0,13z"/>
   <path fill="#ffffff" id="svg_19" d="m144,143.3c2.8,0 4.7,1.2 5.7,3.5c0.3,0.6 0.4,1.3 0.4,2.1c0,0.8 0,1.5 -0.2,2l-9.1,0c0,0.9 0.3,1.5 0.9,2c0.6,0.5 1.4,0.7 2.3,0.7c1.4,0 2.8,-0.3 3.9,-0.9l1.7,1.9c-1.8,1.4 -3.7,2 -5.7,2c-2,0 -3.6,-0.6 -4.8,-1.9c-1.2,-1.3 -1.8,-2.9 -1.8,-4.8c0,-1.9 0.6,-3.5 1.8,-4.8c1.3,-1.2 2.9,-1.8 4.9,-1.8zm0,3c-0.8,0 -1.6,0.3 -2.1,0.8c-0.6,0.5 -0.9,1.1 -0.9,1.7l6,0c0,-0.4 -0.1,-0.7 -0.3,-1c-0.6,-1 -1.5,-1.5 -2.7,-1.5z"/>
   <path fill="#ffffff" id="svg_20" d="m168.2,138.2l3.3,0c0,1.3 -0.4,2.3 -1.1,2.9c-0.7,0.6 -2,1 -3.8,1l-0.8,0c-1.2,0 -2.2,0.3 -2.9,0.8c-0.7,0.6 -1.1,1.4 -1.1,2.4l0,0.6c0.4,-0.6 0.9,-1.1 1.6,-1.5c0.7,-0.4 1.5,-0.6 2.4,-0.6c1.8,0 3.3,0.6 4.4,1.7c1.1,1.1 1.7,2.6 1.7,4.4c0,1.9 -0.6,3.5 -1.8,4.8c-1.2,1.3 -2.8,1.9 -4.8,1.9c-1.9,0 -3.5,-0.6 -4.8,-1.9c-1.3,-1.3 -1.9,-3 -1.9,-5.1l0,-3.1c0,-2.3 0.7,-4.1 2,-5.3c1.3,-1.3 3.2,-1.9 5.6,-1.9c0.8,0 1.4,-0.1 1.7,-0.2c0.1,-0.2 0.3,-0.4 0.3,-0.9zm-3.1,8.7c-0.9,0 -1.7,0.3 -2.4,0.9c-0.7,0.6 -1,1.4 -1,2.3c0,1 0.3,1.7 1,2.4c0.7,0.6 1.4,0.9 2.4,0.9c0.9,0 1.7,-0.3 2.4,-0.9c0.7,-0.6 1,-1.4 1,-2.4c0,-0.9 -0.3,-1.7 -1,-2.3c-0.7,-0.6 -1.5,-0.9 -2.4,-0.9z"/>
   <path fill="#ffffff" id="svg_21" d="m186.5,143.3c2.8,0 4.7,1.2 5.7,3.5c0.3,0.6 0.4,1.3 0.4,2.1c0,0.8 0,1.5 -0.2,2l-9.1,0c0,0.9 0.3,1.5 0.9,2c0.6,0.5 1.4,0.7 2.3,0.7c1.4,0 2.8,-0.3 3.9,-0.9l1.7,1.9c-1.8,1.4 -3.7,2 -5.7,2c-2,0 -3.6,-0.6 -4.8,-1.9c-1.2,-1.3 -1.8,-2.9 -1.8,-4.8c0,-1.9 0.6,-3.5 1.8,-4.8c1.3,-1.2 2.9,-1.8 4.9,-1.8zm0,3c-0.8,0 -1.6,0.3 -2.1,0.8c-0.6,0.5 -0.9,1.1 -0.9,1.7l6,0c0,-0.4 -0.1,-0.7 -0.3,-1c-0.6,-1 -1.5,-1.5 -2.7,-1.5z"/>
   <path fill="#ffffff" id="svg_22" d="m206.9,148.3l-3.6,8.1l-3.5,0l6,-13l2.1,0l6,13l-3.5,0l-3.5,-8.1z"/>
   <path fill="#ffffff" id="svg_23" d="m225.6,147.2l3,0c1.1,0 2,0.1 2.8,0.4c0.8,0.3 1.3,0.7 1.7,1.2c0.4,0.5 0.6,1 0.8,1.5c0.2,0.5 0.2,1 0.2,1.6c0,0.6 -0.1,1.1 -0.2,1.6c-0.2,0.5 -0.4,1 -0.8,1.5c-0.4,0.5 -0.9,0.9 -1.7,1.2s-1.7,0.4 -2.8,0.4l-6.3,0l0,-13l3.3,0l0,3.6zm0,6.2l3.4,0c1.2,0 1.8,-0.5 1.8,-1.5c0,-1 -0.6,-1.5 -1.8,-1.5l-3.4,0l0,3z"/>
  </g>
  <g id="svg_24"/>
  <g id="svg_25"/>
  <g id="svg_26"/>
  <g id="svg_27"/>
  <g id="svg_28"/>
  <g id="svg_29"/>
  <g id="svg_30"/>
  <g id="svg_31"/>
  <g id="svg_32"/>
  <g id="svg_33"/>
  <g id="svg_34"/>
 </g>
</svg>